HIERARCHY
ROOT Hips
{
	OFFSET -3.958830 18.904000 13.208200
	CHANNELS 6 Xposition Yposition Zposition Zrotation Yrotation Xrotation 
	JOINT LHipJoint
	{
		OFFSET 0.000000 0.000000 0.000000
		CHANNELS 3 Zrotation Yrotation Xrotation
		JOINT LeftUpLeg
		{
			OFFSET 1.800000 -1.400000 0.085000
			CHANNELS 3 Zrotation Yrotation Xrotation
			JOINT LeftLeg
			{
				OFFSET 2.215000 -6.000000 0.000000
				CHANNELS 3 Zrotation Yrotation Xrotation
				JOINT LeftFoot
				{
					OFFSET 2.500000 -6.900000 0.000000
					CHANNELS 3 Zrotation Yrotation Xrotation
					JOINT LeftToeBase
					{
						OFFSET 0.200000 -0.500000 1.950000
						CHANNELS 3 Zrotation Yrotation Xrotation
						End Site
						{
							OFFSET 0.000000 0.000000 0.000000
						}
					}
				}
			}
		}
	}
	JOINT RHipJoint
	{
		OFFSET 0.000000 0.000000 0.000000
		CHANNELS 3 Zrotation Yrotation Xrotation
		JOINT RightUpLeg
		{
			OFFSET -1.800000 -1.400000 0.085000
			CHANNELS 3 Zrotation Yrotation Xrotation
			JOINT RightLeg
			{
				OFFSET -2.215000 -6.000000 0.000000
				CHANNELS 3 Zrotation Yrotation Xrotation
				JOINT RightFoot
				{
					OFFSET -2.500000 -6.900000 0.000000
					CHANNELS 3 Zrotation Yrotation Xrotation
					JOINT RightToeBase
					{
						OFFSET -0.200000 -0.500000 1.950000
						CHANNELS 3 Zrotation Yrotation Xrotation
						End Site
						{
							OFFSET 0.000000 0.000000 0.000000
						}
					}
				}
			}
		}
	}
	JOINT LowerBack
	{
		OFFSET 0.000000 0.000000 0.000000
		CHANNELS 3 Zrotation Yrotation Xrotation
		JOINT Spine
		{
			OFFSET -0.087000 1.940000 -0.288900
			CHANNELS 3 Zrotation Yrotation Xrotation
			JOINT Spine1
			{
				OFFSET 0.000000 1.950000 0.060000
				CHANNELS 3 Zrotation Yrotation Xrotation
				JOINT Neck
				{
					OFFSET 0.000000 0.000000 0.000000
					CHANNELS 3 Zrotation Yrotation Xrotation
					JOINT Neck1
					{
						OFFSET 0.000000 1.600000 0.340000
						CHANNELS 3 Zrotation Yrotation Xrotation
						JOINT Head
						{
							OFFSET 0.000000 1.667000 -0.240000
							CHANNELS 3 Zrotation Yrotation Xrotation
							End Site
							{
								OFFSET 0.000000 0.000000 0.000000
							}
						}
					}
				}
				JOINT LeftShoulder
				{
					OFFSET 0.000000 0.000000 0.000000
					CHANNELS 3 Zrotation Yrotation Xrotation
					JOINT LeftArm
					{
						OFFSET 2.700000 1.550000 -0.730000
						CHANNELS 3 Zrotation Yrotation Xrotation
						JOINT LeftForeArm
						{
							OFFSET 5.450000 0.000000 0.000000
							CHANNELS 3 Zrotation Yrotation Xrotation
							JOINT LeftHand
							{
								OFFSET 3.450000 0.000000 0.000000
								CHANNELS 3 Zrotation Yrotation Xrotation
								JOINT LeftHandIndex1
								{
									OFFSET 0.750000 0.000000 0.000000
									CHANNELS 3 Zrotation Yrotation Xrotation
									End Site
									{
										OFFSET 0.000000 0.000000 0.000000
									}
								}
							}
						}
					}
				}
				JOINT RightShoulder
				{
					OFFSET 0.000000 0.000000 0.000000
					CHANNELS 3 Zrotation Yrotation Xrotation
					JOINT RightArm
					{
						OFFSET -2.700000 1.550000 -0.730000
						CHANNELS 3 Zrotation Yrotation Xrotation
						JOINT RightForeArm
						{
							OFFSET -5.450000 0.000000 0.000000
							CHANNELS 3 Zrotation Yrotation Xrotation
							JOINT RightHand
							{
								OFFSET -3.450000 0.000000 0.000000
								CHANNELS 3 Zrotation Yrotation Xrotation
								JOINT RightHandIndex1
								{
									OFFSET -0.750000 0.000000 0.000000
									CHANNELS 3 Zrotation Yrotation Xrotation
									End Site
									{
										OFFSET 0.000000 0.000000 0.000000
									}
								}
							}
						}
					}
				}
			}
		}
	}
}
MOTION
Frames: 13
Frame Time: 0.016667
-0.897680 16.565160 -2.925200 -9.620831 -21.964158 0.656391 -15.693358 12.780032 4.127447 30.256379 -4.324990 -24.543275 -5.932946 18.238467 54.225475 0.477213 11.648645 0.565966 0.662570 0.281140 0.371770 18.081657 -8.959514 3.074306 -8.108551 6.386524 -37.381263 -3.802889 -8.408825 56.782888 -1.220226 -8.080056 1.846776 0.210790 0.305330 0.116420 -2.510471 -4.067400 -8.678602 -3.030626 0.062981 24.612775 1.705323 1.136697 -1.517231 -2.180085 -9.215159 -7.365397 -21.219941 7.310641 29.783785 1.628500 1.697010 -20.649920 -20.627897 -0.626392 -1.609782 -27.273787 -5.018758 -8.059191 -11.739919 -66.256693 3.849489 -3.427614 2.987411 0.892550 0.017730 0.026960 0.410540 25.478388 7.404274 6.050835 50.192475 -9.700308 -11.422353 5.767862 12.966000 -0.758594 1.924671 -1.089692 -0.361540 0.501660 -0.139080 -0.267080 
-1.025160 16.543020 -2.980560 -9.309896 -20.391161 0.627151 -15.720713 12.780191 4.135261 30.990082 -4.258953 -25.126971 -5.317850 17.608503 53.300610 0.439070 11.378293 0.628828 0.635720 0.238540 0.365700 18.059143 -8.870126 3.163826 -8.288284 6.735698 -37.526870 -2.538818 -9.340536 57.930013 -1.294557 -8.346846 1.751785 0.157360 0.264180 0.128020 -2.439172 -4.157156 -8.786185 -4.840847 0.485373 25.966584 2.365721 1.186637 -2.690132 -2.152445 -9.052491 -8.060583 -21.342389 6.719738 30.917892 2.228070 1.079810 -21.049280 -20.288840 -2.189083 -1.317647 -25.163274 -4.579196 -8.730534 1.920979 -61.361161 -3.481015 -3.363612 2.866474 0.911800 -0.020870 0.050300 0.385510 25.468209 8.879953 7.003626 49.931029 -10.654546 -11.300902 3.599674 12.129013 -0.686409 1.969804 -1.073317 -0.334390 0.456590 -0.128430 -0.268690 
-1.154670 16.515360 -3.017700 -9.198986 -19.085028 0.219228 -15.719972 12.777314 4.092549 31.907862 -4.113866 -24.973055 -4.610084 17.055523 52.570760 0.405344 11.135757 0.677924 0.637770 0.249110 0.373870 18.056777 -8.841787 3.242431 -8.748994 7.021759 -37.306745 -0.758053 -10.624836 58.945849 -1.392178 -8.657455 1.648612 0.136630 0.211830 0.134250 -2.439076 -4.107764 -8.862464 -6.100917 0.885410 27.333225 2.334519 1.326538 -3.455413 -1.978878 -8.706112 -8.499734 -21.017438 6.021578 32.152841 2.453330 0.639320 -22.281150 -20.475903 -3.548020 -1.345355 -22.214557 -4.843079 -8.656126 10.983903 -55.091397 -6.738973 -3.321769 2.752142 0.931150 -0.059900 0.089860 0.369130 25.498477 9.943081 7.811745 49.413298 -11.846917 -11.445769 2.701131 12.274393 -0.628331 1.986795 -1.060605 -0.302600 0.427160 -0.134590 -0.268560 
-1.291260 16.500900 -3.047500 -9.434267 -17.507591 -0.296597 -15.709794 12.749584 4.058126 33.174947 -3.895196 -24.677809 -4.014457 16.497927 51.503793 0.322963 10.925453 0.724994 0.642420 0.226760 0.403610 18.063532 -8.827346 3.314686 -9.028965 7.356160 -36.643304 1.580798 -12.277974 59.664974 -1.505215 -9.015829 1.532444 0.118270 0.181800 0.157290 -2.471363 -3.983718 -8.947994 -6.747684 1.067063 28.579625 1.896854 1.444813 -3.878877 -1.633804 -8.091813 -8.925591 -20.177141 5.447146 33.868496 1.982360 0.486890 -22.869100 -21.443837 -5.298276 -1.311744 -18.216691 -4.929633 -8.077352 15.286782 -48.424232 -7.093500 -3.334106 2.676046 0.976980 -0.077350 0.118740 0.356090 25.868735 11.157991 8.587495 48.644441 -12.784119 -11.344401 2.088368 12.026489 -0.558332 1.979252 -1.048430 -0.302190 0.410520 -0.131200 -0.292440 
-1.439650 16.500080 -3.057880 -9.453020 -15.955675 -0.769806 -15.680247 12.737922 3.957026 33.941556 -3.562038 -24.169083 -3.212590 15.748727 50.081789 0.243087 10.593883 0.813123 0.656930 0.249100 0.424250 18.081883 -8.859162 3.397397 -9.330334 7.691681 -35.933129 3.749022 -13.829252 60.436931 -1.610967 -9.394027 1.417165 0.131270 0.154620 0.142350 -2.543012 -3.787957 -8.981427 -7.349159 1.076614 29.068282 1.297547 1.395130 -4.145707 -1.572948 -7.712628 -9.149951 -19.644535 5.170830 35.016478 2.159940 0.227460 -22.932690 -22.226175 -6.362023 -1.229792 -14.643746 -5.334521 -6.961016 16.575611 -40.732307 -5.980528 -3.363631 2.638313 0.978140 -0.094600 0.130190 0.347110 26.544467 11.828540 8.883439 47.038432 -12.722407 -10.332585 1.500577 10.179095 -0.458219 2.014851 -1.040823 -0.297170 0.409780 -0.143680 -0.297380 
-1.597030 16.517250 -3.049270 -9.327689 -14.416709 -1.408404 -15.654253 12.776818 3.788091 34.235014 -3.162391 -23.513185 -1.847995 14.785248 48.880806 0.142619 10.265493 0.916059 0.652630 0.233810 0.439600 18.089301 -8.896135 3.501254 -9.847732 8.046905 -35.132776 6.379638 -15.560497 60.721746 -1.707406 -9.762672 1.313786 0.134530 0.156510 0.122390 -2.586923 -3.629992 -8.984087 -8.196505 1.249535 29.040869 0.843642 1.412923 -4.238493 -1.570084 -7.282966 -9.291896 -19.104223 5.177075 36.401121 2.445580 0.139930 -22.514890 -22.616426 -6.869315 -1.035154 -12.680343 -5.835877 -5.907209 18.106633 -33.546327 -5.266700 -3.420366 2.573788 0.993320 -0.096610 0.121290 0.335040 26.934263 11.966484 8.894935 45.541869 -12.377021 -9.492480 0.391908 8.976776 -0.358711 2.028933 -1.022954 -0.321610 0.431110 -0.137000 -0.314400 
-1.759510 16.543640 -3.021930 -8.889469 -13.136655 -2.272192 -15.629465 12.908319 3.546261 33.865102 -2.654747 -22.709135 0.129335 13.475086 47.584248 0.039273 9.827406 1.050925 0.637350 0.218470 0.436620 18.078108 -8.988699 3.584477 -10.360992 8.323915 -33.842572 8.938592 -17.048497 60.493766 -1.783308 -10.035340 1.233594 0.134220 0.153770 0.100530 -2.589204 -3.523928 -8.926453 -9.564907 1.731999 28.542620 0.867437 1.556051 -4.200547 -1.698143 -6.956152 -9.474235 -18.952236 5.388521 38.062510 3.174900 0.026000 -22.151340 -22.340387 -6.880312 -0.687834 -12.554280 -6.525389 -4.878624 19.106346 -26.514817 -4.575148 -3.475109 2.518362 1.005830 -0.105340 0.116090 0.317160 26.978207 11.796160 8.761232 44.372901 -11.940363 -9.040647 -2.039113 8.982528 -0.307391 2.038464 -1.014337 -0.340350 0.445860 -0.123050 -0.324290 
-1.923470 16.568780 -2.955310 -8.387969 -11.791401 -3.166724 -15.599798 13.078399 3.266976 33.289923 -2.056789 -21.366440 1.878707 12.222258 45.680558 -0.098687 9.413612 1.221995 0.568470 0.122670 0.406100 18.058871 -9.128235 3.643482 -11.092285 8.399560 -32.078344 11.698586 -18.585172 59.717838 -1.828065 -10.270413 1.192558 0.111660 0.229960 0.060640 -2.583733 -3.418620 -8.834518 -10.643543 1.984407 27.019622 0.543308 1.576650 -3.880303 -1.794306 -6.653737 -9.679046 -18.997403 5.877835 40.235717 3.775660 -0.150720 -20.387140 -21.784523 -6.709379 -0.279857 -13.252054 -6.891232 -3.986336 20.216392 -20.315214 -4.094917 -3.578934 2.393067 1.032370 -0.072450 0.067420 0.303850 26.654028 11.411344 8.544758 43.395011 -11.359455 -8.976125 -4.198241 10.225576 -0.398755 1.998982 -0.965808 -0.423460 0.528330 -0.070150 -0.342690 
-2.086100 16.593960 -2.871840 -8.104442 -10.555290 -3.698013 -15.591217 13.189651 3.051513 32.984679 -1.310274 -20.578090 3.465400 11.222902 43.964717 -0.158164 9.023690 1.372229 0.592450 0.151670 0.379820 18.044258 -9.204067 3.669799 -11.507221 8.463086 -30.195776 14.511986 -19.970073 58.551904 -1.882414 -10.473430 1.144843 0.146240 0.273320 0.048360 -2.571603 -3.379769 -8.718986 -11.083786 1.896126 24.818305 0.177695 1.575278 -3.439815 -2.238227 -7.109963 -9.267164 -20.221193 6.592136 40.509118 5.673360 -0.966550 -18.499220 -21.416392 -5.302565 -0.546188 -14.739718 -8.104683 -3.210412 21.311872 -14.960599 -3.660729 -3.629566 2.421232 0.997290 -0.056430 0.032190 0.340300 27.095630 10.287492 7.967907 41.313049 -10.818062 -9.278676 -6.804852 13.841161 -0.898420 1.952852 -1.045971 -0.427890 0.541750 -0.085400 -0.314850 
-2.223860 16.622720 -2.779930 -8.087582 -8.936924 -4.351209 -15.559785 13.330760 2.827927 32.393936 -0.793556 -19.901357 5.455008 9.975781 42.512198 -0.205343 8.632493 1.538580 0.591880 0.162650 0.325210 18.040736 -9.306669 3.690975 -12.039119 8.202259 -28.187358 17.504459 -21.392105 56.824452 -1.921558 -10.627838 1.112045 0.169260 0.338620 0.033940 -2.610769 -3.371628 -8.599822 -10.384130 1.313092 22.954560 -0.743455 1.307794 -3.240723 -2.456287 -7.930060 -9.007502 -22.407956 8.009538 40.714709 6.850330 -1.427550 -15.895070 -21.249192 -3.860701 -0.823257 -16.572795 -8.639484 -2.737197 22.271769 -11.083910 -3.306295 -3.673879 2.455319 0.954370 -0.028990 -0.012140 0.383430 27.258510 9.266705 7.492692 38.749846 -10.352662 -9.308033 -7.259679 16.686878 -1.240284 1.921417 -1.104197 -0.440410 0.563060 -0.088830 -0.276460 
-2.350170 16.651290 -2.695120 -8.226890 -7.704299 -5.636541 -15.527918 13.465338 2.640282 32.113083 -0.209160 -18.709076 6.957743 9.141925 41.478175 -0.233851 8.399141 1.644702 0.591800 0.154720 0.329620 18.031788 -9.436193 3.691430 -12.119895 8.113157 -25.513883 19.906446 -22.562052 55.658734 -1.988233 -10.770447 1.096524 0.171640 0.361580 0.019600 -2.641167 -3.292720 -8.520383 -9.696455 1.125809 21.972888 -1.445290 1.357301 -3.320794 -2.257407 -8.120152 -8.938628 -23.728778 9.356738 42.884279 6.731530 -1.103050 -14.327980 -21.770995 -3.082782 -0.909519 -17.806442 -8.187812 -2.544085 22.512894 -9.070739 -3.035437 -3.693625 2.430463 0.958080 -0.018230 -0.022540 0.395900 27.315457 8.652889 7.149889 36.420971 -9.783037 -9.620236 -8.453170 20.103148 -1.642003 1.880383 -1.121673 -0.460350 0.588150 -0.095150 -0.277030 
-2.468580 16.683560 -2.609180 -8.505417 -6.951190 -6.645591 -15.518912 13.481930 2.549851 32.419081 0.549040 -17.598137 6.961944 9.184541 40.371732 -0.186650 8.288968 1.693307 0.624820 0.201980 0.323790 18.034436 -9.485472 3.678353 -11.623449 8.298329 -23.201154 21.854267 -23.242157 54.560119 -2.031869 -10.853363 1.092078 0.192550 0.372790 0.027960 -2.665869 -3.175745 -8.461016 -8.693674 1.027661 20.407394 -2.121766 1.610108 -2.972666 -2.179446 -8.458538 -8.725198 -25.057221 10.581645 44.230186 7.062780 -1.201240 -11.967730 -22.784518 -2.423898 -0.978449 -18.635115 -7.397745 -2.460954 21.736524 -8.529332 -2.826216 -3.692130 2.490773 0.899580 -0.001120 -0.035750 0.425050 28.024141 8.381285 6.768314 33.637171 -8.790761 -9.721945 -10.982528 22.932637 -2.284422 1.872323 -1.215269 -0.422130 0.561460 -0.127680 -0.245680 
-2.569540 16.714070 -2.530330 -8.863858 -6.073012 -7.776004 -15.522502 13.469256 2.560757 32.929500 1.335429 -16.960720 6.410049 9.636969 39.944835 -0.119932 8.334070 1.686401 0.623540 0.213590 0.303300 18.031785 -9.520183 3.617189 -11.085892 8.386377 -20.678127 23.220724 -23.490180 53.352445 -2.051872 -10.832058 1.114536 0.184240 0.381040 0.035910 -2.671342 -3.085632 -8.454206 -7.527221 1.170263 19.326079 -2.418990 2.067825 -2.615015 -1.759125 -8.585127 -9.130356 -26.355919 12.109044 46.579835 6.391760 -0.690190 -9.247600 -23.795285 -2.678370 -0.482333 -19.984621 -5.764876 -2.520616 20.364759 -9.212240 -2.732651 -3.668574 2.530615 0.867280 0.012640 -0.036660 0.445760 28.190484 8.983030 6.856605 31.539978 -8.632610 -10.705490 -14.433361 27.806209 -3.436233 1.837307 -1.292224 -0.397710 0.536880 -0.143100 -0.222120 
